<svg width="36" height="32" viewBox="0 0 36 32" fill="none" xmlns="http://www.w3.org/2000/svg">
<path d="M28.8045 29.5395C30.8903 29.5395 32.5811 27.8456 32.5811 25.7561C32.5811 23.6665 30.8903 21.9726 28.8045 21.9726C26.7187 21.9726 25.0278 23.6665 25.0278 25.7561C25.0278 27.8456 26.7187 29.5395 28.8045 29.5395Z" fill="#FFAB3B"/>
<path d="M18.0032 29.5395C20.089 29.5395 21.7799 27.8456 21.7799 25.7561C21.7799 23.6665 20.089 21.9726 18.0032 21.9726C15.9174 21.9726 14.2266 23.6665 14.2266 25.7561C14.2266 27.8456 15.9174 29.5395 18.0032 29.5395Z" fill="#FFAB3B"/>
<path d="M7.30179 29.5395C9.38757 29.5395 11.0784 27.8456 11.0784 25.7561C11.0784 23.6665 9.38757 21.9726 7.30179 21.9726C5.21601 21.9726 3.52515 23.6665 3.52515 25.7561C3.52515 27.8456 5.21601 29.5395 7.30179 29.5395Z" fill="#FFAB3B"/>
<path d="M7.30179 20.0794C9.38757 20.0794 11.0784 18.3855 11.0784 16.2959C11.0784 14.2064 9.38757 12.5125 7.30179 12.5125C5.21601 12.5125 3.52515 14.2064 3.52515 16.2959C3.52515 18.3855 5.21601 20.0794 7.30179 20.0794Z" fill="#FFAB3B"/>
<path d="M18.0032 19.6442C19.849 19.6442 21.3453 18.1452 21.3453 16.2961C21.3453 14.4469 19.849 12.9479 18.0032 12.9479C16.1574 12.9479 14.6611 14.4469 14.6611 16.2961C14.6611 18.1452 16.1574 19.6442 18.0032 19.6442Z" fill="#FFAB3B"/>
<path d="M18.0031 9.92342C19.7046 9.92342 21.0839 8.54163 21.0839 6.83711C21.0839 5.13258 19.7046 3.75079 18.0031 3.75079C16.3017 3.75079 14.9224 5.13258 14.9224 6.83711C14.9224 8.54163 16.3017 9.92342 18.0031 9.92342Z" fill="#FFAB3B"/>
<path d="M28.8044 19.3823C30.5058 19.3823 31.8851 18.0005 31.8851 16.296C31.8851 14.5915 30.5058 13.2097 28.8044 13.2097C27.1029 13.2097 25.7236 14.5915 25.7236 16.296C25.7236 18.0005 27.1029 19.3823 28.8044 19.3823Z" fill="#FFAB3B"/>
<path d="M28.7044 9.49475C30.17 9.49475 31.3581 8.30452 31.3581 6.8363C31.3581 5.36808 30.17 4.17786 28.7044 4.17786C27.2389 4.17786 26.0508 5.36808 26.0508 6.8363C26.0508 8.30452 27.2389 9.49475 28.7044 9.49475Z" fill="#FFAB3B"/>
<path d="M7.30179 10.6205C9.38757 10.6205 11.0784 8.92654 11.0784 6.83699C11.0784 4.74744 9.38757 3.05353 7.30179 3.05353C5.21601 3.05353 3.52515 4.74744 3.52515 6.83699C3.52515 8.92654 5.21601 10.6205 7.30179 10.6205Z" fill="#FFAB3B"/>
</svg>
