<svg width="1412" height="543" viewBox="0 0 1412 543" fill="none" xmlns="http://www.w3.org/2000/svg">
<g clip-path="url(#clip0_270_8729)">
<path d="M125.69 541.13L399.32 512.3L594.36 307.63L458.22 39.27L172.93 17.79L1.15002 259.52L125.69 541.13Z" stroke="#2C5A74" stroke-width="2" stroke-miterlimit="10"/>
<path d="M1.15002 259.52L85.81 313.51L125.69 541.13L424.39 533.77L594.36 307.63L429.39 160.13L399.32 512.3L85.81 313.51" stroke="#2C5A74" stroke-width="2" stroke-miterlimit="10"/>
<path d="M458.22 39.27L429.39 160.13L85.8101 313.51L172.93 17.79L429.39 160.13" stroke="#2C5A74" stroke-width="2" stroke-miterlimit="10"/>
<path d="M424.39 533.77L399.32 512.3" stroke="#2C5A74" stroke-width="2" stroke-miterlimit="10"/>
<path d="M429.39 181.6C441.248 181.6 450.86 171.988 450.86 160.13C450.86 148.272 441.248 138.66 429.39 138.66C417.532 138.66 407.92 148.272 407.92 160.13C407.92 171.988 417.532 181.6 429.39 181.6Z" fill="#D27C01"/>
<path d="M85.81 334.98C97.6675 334.98 107.28 325.368 107.28 313.51C107.28 301.652 97.6675 292.04 85.81 292.04C73.9524 292.04 64.34 301.652 64.34 313.51C64.34 325.368 73.9524 334.98 85.81 334.98Z" fill="#D27C01"/>
<path d="M399.32 527.63C408.808 527.63 416.5 519.938 416.5 510.45C416.5 500.962 408.808 493.27 399.32 493.27C389.832 493.27 382.14 500.962 382.14 510.45C382.14 519.938 389.832 527.63 399.32 527.63Z" fill="#D27C01"/>
<path d="M177.23 34.36C186.718 34.36 194.41 26.6683 194.41 17.18C194.41 7.69175 186.718 0 177.23 0C167.742 0 160.05 7.69175 160.05 17.18C160.05 26.6683 167.742 34.36 177.23 34.36Z" fill="#D27C01"/>
<path d="M580.87 274.66H517.3V300.16H575.64V321.01H517.3V351.91H583.81V373.51H492.81V253.39H580.91L580.87 274.66Z" fill="#2C5A74"/>
<path d="M614.84 265.94C624.52 256.053 636.83 251.107 651.77 251.1C671.77 251.1 686.39 257.73 695.63 270.99C700.73 278.43 703.47 285.9 703.85 293.4H678.75C677.15 287.64 675.1 283.307 672.6 280.4C668.127 275.18 661.5 272.573 652.72 272.58C648.548 272.46 644.415 273.408 640.712 275.333C637.009 277.258 633.859 280.097 631.56 283.58C626.4 290.913 623.82 301.33 623.82 314.83C623.82 328.33 626.543 338.423 631.99 345.11C637.437 351.817 644.36 355.17 652.76 355.17C661.373 355.17 667.937 352.293 672.45 346.54C674.95 343.44 677.023 338.793 678.67 332.6H703.64C701.493 345.687 695.997 356.337 687.15 364.55C678.303 372.763 666.97 376.863 653.15 376.85C636.063 376.85 622.627 371.31 612.84 360.23C603.053 349.15 598.163 333.883 598.17 314.43C598.157 293.483 603.713 277.32 614.84 265.94Z" fill="#2C5A74"/>
<path d="M816.4 362.84C807.32 372.173 794.197 376.84 777.03 376.84C759.863 376.84 746.743 372.173 737.67 362.84C725.497 351.367 719.413 334.85 719.42 313.29C719.42 291.29 725.503 274.773 737.67 263.74C746.737 254.407 759.857 249.74 777.03 249.74C794.203 249.74 807.327 254.407 816.4 263.74C828.507 274.767 834.563 291.283 834.57 313.29C834.57 334.85 828.513 351.367 816.4 362.84ZM800.71 344.58C806.55 337.247 809.47 326.817 809.47 313.29C809.47 299.763 806.55 289.337 800.71 282.01C794.87 274.677 786.977 271.01 777.03 271.01C767.083 271.01 759.153 274.677 753.24 282.01C747.32 289.343 744.357 299.777 744.35 313.31C744.343 326.843 747.307 337.273 753.24 344.6C759.16 351.933 767.09 355.6 777.03 355.6C786.97 355.6 794.863 351.927 800.71 344.58Z" fill="#2C5A74"/>
<path d="M853.32 253.39H879.64L927.32 337.15V253.39H950.71V373.51H925.64L876.74 288.28V373.51H853.35L853.32 253.39Z" fill="#2C5A74"/>
<path d="M1107.91 253.39V274.66H1071.97V373.51H1046.71V274.66H1010.64V253.39H1107.91Z" fill="#2C5A74"/>
<path d="M1122.58 253.39H1148.09V327.16C1148.09 335.413 1149.06 341.44 1151.01 345.24C1154.04 351.973 1160.65 355.34 1170.83 355.34C1181.01 355.34 1187.59 351.973 1190.56 345.24C1192.51 341.44 1193.48 335.413 1193.48 327.16V253.39H1218.99V327.22C1218.99 339.987 1217.01 349.93 1213.05 357.05C1205.68 370.09 1191.6 376.61 1170.83 376.61C1150.06 376.61 1135.95 370.077 1128.52 357.01C1124.56 349.89 1122.58 339.947 1122.58 327.18V253.39Z" fill="#2C5A74"/>
<path d="M523.42 389.25H551.83L594.35 509.44H567.12L559.19 484.73H514.93L506.78 509.44H480.51L523.42 389.25ZM521.76 464.01H552.54L537.36 416.72L521.76 464.01Z" fill="#D27C01"/>
<path d="M609.23 389.25H635.56L683.27 473.05V389.25H706.64V509.44H681.56L632.64 424.16V509.44H609.24L609.23 389.25Z" fill="#D27C01"/>
<path d="M764.64 389.25H793.06L835.58 509.44H808.35L800.41 484.73H756.16L748.01 509.44H721.74L764.64 389.25ZM762.95 464.01H793.73L778.55 416.72L762.95 464.01Z" fill="#D27C01"/>
<path d="M850.83 389.25H875.94V487.83H935.94V509.44H850.82L850.83 389.25Z" fill="#D27C01"/>
<path d="M1006.07 389.25H1034.53L994.33 464.37V509.44H969.22V464.37L927.64 389.25H957.23L982.23 441.6L1006.07 389.25Z" fill="#D27C01"/>
<path d="M1136.21 389.25V410.53H1100.21V509.44H1074.93V410.53H1038.81V389.25H1136.21Z" fill="#D27C01"/>
<path d="M1173.8 509.44H1148.8V389.25H1173.8V509.44Z" fill="#D27C01"/>
<path d="M1208.76 401.81C1218.44 391.91 1230.77 386.963 1245.76 386.97C1265.76 386.97 1280.39 393.6 1289.64 406.86C1294.75 414.307 1297.49 421.783 1297.86 429.29H1272.75C1271.15 423.53 1269.1 419.197 1266.6 416.29C1262.13 411.07 1255.5 408.46 1246.71 408.46C1237.76 408.46 1230.7 412.143 1225.54 419.51C1220.38 426.877 1217.8 437.3 1217.79 450.78C1217.79 464.26 1220.52 474.357 1225.97 481.07C1231.42 487.783 1238.35 491.14 1246.75 491.14C1255.36 491.14 1261.93 488.26 1266.45 482.5C1268.95 479.4 1271.02 474.753 1272.67 468.56H1297.67C1295.52 481.66 1290.02 492.327 1281.17 500.56C1272.32 508.793 1260.99 512.897 1247.17 512.87C1230.07 512.87 1216.63 507.327 1206.84 496.24C1197.05 485.153 1192.16 469.877 1192.16 450.41C1192.09 429.37 1197.63 413.17 1208.76 401.81Z" fill="#D27C01"/>
<path d="M1335.97 472.34C1336.75 477.833 1338.28 481.937 1340.55 484.65C1344.71 489.603 1351.84 492.077 1361.95 492.07C1368 492.07 1372.91 491.403 1376.68 490.07C1383.84 487.57 1387.42 482.923 1387.42 476.13C1387.47 474.261 1387 472.415 1386.07 470.792C1385.15 469.168 1383.79 467.829 1382.16 466.92C1378.65 464.8 1373.09 462.923 1365.48 461.29L1352.48 458.44C1339.7 455.607 1330.92 452.533 1326.13 449.22C1318.03 443.68 1313.98 435.013 1313.98 423.22C1313.87 418.152 1314.88 413.121 1316.93 408.486C1318.98 403.851 1322.03 399.725 1325.86 396.4C1333.79 389.28 1345.43 385.72 1360.78 385.72C1373.6 385.72 1384.54 389.077 1393.59 395.79C1402.64 402.503 1407.38 412.243 1407.81 425.01H1383.64C1383.2 417.777 1379.97 412.64 1373.95 409.6C1369.95 407.6 1364.95 406.6 1358.95 406.6C1352.32 406.6 1347.03 407.903 1343.07 410.51C1341.2 411.646 1339.67 413.256 1338.63 415.176C1337.59 417.095 1337.08 419.257 1337.14 421.44C1337.08 423.438 1337.6 425.411 1338.64 427.119C1339.67 428.827 1341.19 430.196 1342.99 431.06C1345.5 432.467 1350.84 434.133 1358.99 436.06L1380.09 441.06C1389.33 443.233 1396.26 446.14 1400.87 449.78C1408.04 455.44 1411.63 463.62 1411.62 474.32C1411.62 485.3 1407.38 494.42 1398.89 501.68C1390.4 508.94 1378.4 512.57 1362.89 512.57C1347.07 512.57 1334.63 508.993 1325.56 501.84C1316.49 494.687 1311.96 484.863 1311.96 472.37L1335.97 472.34Z" fill="#D27C01"/>
</g>
<defs>
<clipPath id="clip0_270_8729">
<rect width="1411.64" height="542.2" fill="white"/>
</clipPath>
</defs>
</svg>
